<?xml version="1.0" encoding="utf-8"?>
<svg viewBox="0 0 1920 1920" xmlns="http://www.w3.org/2000/svg">
    <path fill-rule="evenodd" d="M262.749 410.667H.000648499V282.667H262.749C292.139 145.504 414.06 42.6667 560 42.6667 705.94 42.6667 827.861 145.504 857.251 282.667H1920V410.667H857.251C827.861 547.829 705.94 650.667 560 650.667 414.06 650.667 292.139 547.829 262.749 410.667ZM384 346.667C384 249.465 462.798 170.667 560 170.667 657.202 170.667 736 249.465 736 346.667 736 443.869 657.202 522.667 560 522.667 462.798 522.667 384 443.869 384 346.667ZM.000648499 896H1009.42C1038.81 758.837 1160.73 656 1306.67 656 1452.61 656 1574.53 758.837 1603.92 896H1920V1024H1603.92C1574.53 1161.16 1452.61 1264 1306.67 1264 1160.73 1264 1038.81 1161.16 1009.42 1024H.000648499V896ZM1306.67 784C1209.46 784 1130.67 862.798 1130.67 960 1130.67 1057.2 1209.46 1136 1306.67 1136 1403.87 1136 1482.67 1057.2 1482.67 960 1482.67 862.798 1403.87 784 1306.67 784ZM857.251 1637.33C827.861 1774.5 705.94 1877.33 560 1877.33 414.06 1877.33 292.139 1774.5 262.749 1637.33H.000648499V1509.33H262.749C292.139 1372.17 414.06 1269.33 560 1269.33 705.94 1269.33 827.861 1372.17 857.251 1509.33H1920V1637.33H857.251ZM384 1573.33C384 1476.13 462.798 1397.33 560 1397.33 657.202 1397.33 736 1476.13 736 1573.33 736 1670.54 657.202 1749.33 560 1749.33 462.798 1749.33 384 1670.54 384 1573.33Z"/>
</svg>