<?xml version="1.0" encoding="utf-8"?>
<svg viewBox="0 0 24 24" xmlns="http://www.w3.org/2000/svg">
  <path d="M20.22 9.55C19.79 9.04 19.17 8.75 18.5 8.75H14.47V6C14.47 4.48 13.24 3.25 11.64 3.25C10.94 3.25 10.31 3.67 10.03 4.32L7.49 10.25H5.62C4.31 10.25 3.25 11.31 3.25 12.62V18.39C3.25 19.69 4.32 20.75 5.62 20.75H17.18C18.27 20.75 19.2 19.97 19.39 18.89L20.71 11.39C20.82 10.73 20.64 10.06 20.21 9.55H20.22ZM5.62 19.25C5.14 19.25 4.75 18.86 4.75 18.39V12.62C4.75 12.14 5.14 11.75 5.62 11.75H7.23V19.25H5.62ZM17.92 18.63C17.86 18.99 17.55 19.25 17.18 19.25H8.74V11.15L11.41 4.9C11.45 4.81 11.54 4.74 11.73 4.74C12.42 4.74 12.97 5.3 12.97 5.99V10.24H18.5C18.73 10.24 18.93 10.33 19.07 10.5C19.21 10.67 19.27 10.89 19.23 11.12L17.91 18.62L17.92 18.63Z"/>
</svg>